<?xml version="1.0" standalone="no"?><!DOCTYPE svg PUBLIC "-//W3C//DTD SVG 1.1//EN" "http://www.w3.org/Graphics/SVG/1.1/DTD/svg11.dtd"><svg t="1503041649205" class="icon" style="" viewBox="0 0 1024 1024" version="1.1" xmlns="http://www.w3.org/2000/svg" p-id="634" xmlns:xlink="http://www.w3.org/1999/xlink" width="200" height="200"><defs><style type="text/css"></style></defs><path d="M843.726848 540.644352c0 42.051584-7.919616 81.644544-23.759872 118.784-15.83616 37.137408-37.543936 70.040576-65.124352 98.712576s-60.076032 52.155392-97.483776 70.4512c-37.41184 18.295808-77.687808 29.356032-120.832 33.176576-2.732032 0.54784-5.187584 0.955392-7.375872 1.231872-2.184192 0.27136-4.639744 0.406528-7.371776 0.406528L380.058624 863.407104c-9.284608 0-18.432-1.639424-27.444224-4.9152-9.012224-3.2768-17.068032-7.780352-24.168448-13.5168-7.099392-5.735424-12.967936-12.424192-17.611776-20.071424-4.639744-7.64416-6.964224-15.563776-6.964224-23.755776s2.188288-16.11264 6.556672-23.7568c4.36736-7.647232 10.103808-14.199808 17.204224-19.659776 7.099392-5.464064 15.015936-9.831424 23.755776-13.108224 8.735744-3.275776 17.747968-4.9152 27.031552-4.9152l126.976 0.8192c28.944384 0 56.252416-5.323776 81.92-15.975424 25.667584-10.648576 48.060416-24.984576 67.176448-43.008 19.111936-18.021376 34.131968-39.185408 45.056-63.488 10.919936-24.300544 16.384-50.379776 16.384-78.232576 0-26.215424-4.916224-50.7904-14.747648-73.728-9.828352-22.935552-23.344128-43.415552-40.548352-61.44-17.204224-18.023424-37.275648-32.631808-60.212224-43.8272-22.935552-11.196416-47.788032-18.16064-74.548224-20.888576-1.091584 0-1.775616 0.136192-2.048 0.408576-0.272384 0.27136-0.956416 0.411648-2.048 0.411648L391.5264 340.759552l0 64.715776c0 9.283584-3.688448 16.108544-11.060224 20.48-7.371776 4.368384-19.252224 1.636352-35.636224-8.192-4.36736-2.732032-11.331584-7.512064-20.887552-14.336-9.555968-6.828032-20.752384-14.88384-33.588224-24.167424-12.831744-9.284608-26.351616-19.116032-40.547328-29.492224l-40.96-31.128576c-8.192-6.551552-15.292416-12.424192-21.300224-17.611776-6.007808-5.187584-9.012224-11.608064-9.012224-19.252224 0-6.551552 3.411968-13.379584 10.24-20.48 6.828032-7.099392 14.608384-14.199808 23.348224-21.2992 9.827328-8.192 21.571584-17.748992 35.223552-28.672 13.656064-10.924032 27.17184-21.572608 40.552448-31.9488 13.379584-10.376192 25.396224-19.795968 36.043776-28.263424 10.647552-8.464384 18.159616-14.336 22.528-17.611776 13.108224-9.284608 23.755776-11.196416 31.947776-5.732352 8.192 5.459968 12.560384 13.651968 13.108224 24.576l0 65.536 130.251776 0c2.732032 0 5.600256 0.27136 8.603648 0.816128 3.004416 0.54784 5.86752 1.091584 8.599552 1.639424 42.600448 4.368384 82.46784 15.5648 119.604224 33.588224 37.136384 18.020352 69.495808 41.368576 97.076224 70.040576s49.152 61.575168 64.715776 98.715648C835.9424 459.81696 843.726848 499.137536 843.726848 540.644352L843.726848 540.644352zM843.726848 540.644352" p-id="635" fill="#20A0FF"></path></svg>