<?xml version="1.0" encoding="UTF-8"?> <svg width="14px" height="14px" viewBox="0 0 14 14" version="1.1" xmlns="http://www.w3.org/2000/svg" xmlns:xlink="http://www.w3.org/1999/xlink"> <g stroke="none" stroke-width="1" fill="none" fill-rule="evenodd"> <g transform="translate(-26.000000, -91.000000)" fill="#C0CCDA"> <g> <g transform="translate(0.000000, 70.000000)"> <g transform="translate(26.000000, 21.000000)"> <g transform="translate(7.000000, 7.000000) rotate(90.000000) translate(-7.000000, -7.000000) translate(0.500000, 0.000000)"> <path d="M1.5,0 L1.5,0 C2.32842712,-1.52179594e-16 3,0.671572875 3,1.5 L3,12.5 C3,13.3284271 2.32842712,14 1.5,14 C0.671572875,14 1.01453063e-16,13.3284271 0,12.5 L0,1.5 L0,1.5 C-1.01453063e-16,0.671572875 0.671572875,1.52179594e-16 1.5,0 L1.5,0 Z M1.5,0.5 L1.5,0.5 C0.94771525,0.5 0.5,0.94771525 0.5,1.5 L0.5,1.5 L0.5,1.5 C0.5,2.05228475 0.94771525,2.5 1.5,2.5 L1.5,2.5 C2.05228475,2.5 2.5,2.05228475 2.5,1.5 L2.5,1.5 C2.5,0.94771525 2.05228475,0.5 1.5,0.5 L1.5,0.5 L1.5,0.5 Z" id="Combined-Shape"></path> <path d="M11.5,0 L11.5,0 C12.3284271,-1.52179594e-16 13,0.671572875 13,1.5 L13,12.5 C13,13.3284271 12.3284271,14 11.5,14 C10.6715729,14 10,13.3284271 10,12.5 L10,1.5 L10,1.5 C10,0.671572875 10.6715729,1.52179594e-16 11.5,0 L11.5,0 Z M11.5,6 L11.5,6 C10.9477153,6 10.5,6.44771525 10.5,7 C10.5,7.55228475 10.9477153,8 11.5,8 L11.5,8 C12.0522847,8 12.5,7.55228475 12.5,7 L12.5,7 C12.5,6.44771525 12.0522847,6 11.5,6 L11.5,6 L11.5,6 Z" id="Combined-Shape"></path> <path d="M6.5,0 L6.5,0 C7.32842712,-1.52179594e-16 8,0.671572875 8,1.5 L8,12.5 C8,13.3284271 7.32842712,14 6.5,14 C5.67157288,14 5,13.3284271 5,12.5 L5,1.5 L5,1.5 C5,0.671572875 5.67157288,1.52179594e-16 6.5,0 L6.5,0 Z M6.5,11.5 L6.5,11.5 C5.94771525,11.5 5.5,11.9477153 5.5,12.5 L5.5,12.5 C5.5,13.0522847 5.94771525,13.5 6.5,13.5 L6.5,13.5 C7.05228475,13.5 7.5,13.0522847 7.5,12.5 C7.5,11.9477153 7.05228475,11.5 6.5,11.5 L6.5,11.5 L6.5,11.5 Z" id="Combined-Shape"></path> </g> </g> </g> </g> </g> </g> </svg>
